<svg width="800" height="1000" viewBox="0 0 800 1000" fill="none" xmlns="http://www.w3.org/2000/svg">
  <rect width="800" height="1000" fill="#0D0D0D"/>
  <rect x="40" y="40" width="720" height="920" stroke="#2A2A2A" stroke-width="2"/>

  <rect x="250" y="110" width="130" height="780" fill="#F2F2F2"/>
  <rect x="420" y="110" width="130" height="780" fill="#EDEDED"/>

  <rect x="238" y="260" width="155" height="14" fill="#1A1A1A"/>
  <rect x="408" y="260" width="155" height="14" fill="#1A1A1A"/>
  <rect x="238" y="470" width="155" height="14" fill="#1A1A1A"/>
  <rect x="408" y="470" width="155" height="14" fill="#1A1A1A"/>

  <rect x="238" y="345" width="45" height="82" fill="#151515"/>
  <rect x="348" y="345" width="45" height="82" fill="#151515"/>
  <rect x="408" y="345" width="45" height="82" fill="#151515"/>
  <rect x="518" y="345" width="45" height="82" fill="#151515"/>

  <rect x="245" y="90" width="310" height="25" fill="#161616"/>
  <rect x="242" y="890" width="143" height="22" fill="#1C1C1C"/>
  <rect x="417" y="890" width="143" height="22" fill="#1C1C1C"/>

  <line x1="250" y1="110" x2="250" y2="890" stroke="#D0D0D0" stroke-width="1"/>
  <line x1="380" y1="110" x2="380" y2="890" stroke="#D0D0D0" stroke-width="1"/>
  <line x1="420" y1="110" x2="420" y2="890" stroke="#D0D0D0" stroke-width="1"/>
  <line x1="550" y1="110" x2="550" y2="890" stroke="#D0D0D0" stroke-width="1"/>

  <circle cx="400" cy="56" r="5" fill="#FF0000"/>
</svg>
